<svg xmlns="http://www.w3.org/2000/svg" width="90" height="55" viewBox="0 0 90 55">
    <defs>
        <clipPath id="clip-path">
            <circle id="Ellipse_78" cx="26.5" cy="26.5" r="26.5" class="cls-1"/>
        </clipPath>
        <style>
            .cls-1{fill:#5d95c7}.cls-5{fill:#f90}.cls-6{fill-rule:evenodd}.cls-7{fill:#fff}
        </style>
    </defs>
    <g id="dolly-amza" transform="translate(.599 -4.569)">
        <path id="bg" fill="none" d="M0 0H90V55H0z" transform="translate(-.599 4.569)"/>
        <g id="AMZA" transform="translate(-413.043 -604.917) translate(448 610.486)">
            <circle id="bg-2" cx="26.5" cy="26.5" r="26.5" fill="#f3f4f6"/>
            <g id="icon" clip-path="url(#clip-path)">
                <g id="amazon-icon-1" transform="translate(12.406 11.976)">
                    <path id="Path_3058" d="M25.429 32.135C13.439 37.841 6 33.067 1.235 30.167c-.295-.183-.8.043-.361.542 1.587 1.924 6.787 6.562 13.575 6.562a15.8 15.8 0 0 0 11.339-4.353c.5-.641.147-.995-.36-.783zm3.367-1.86c-.322-.419-1.958-.5-2.987-.371s-2.579.753-2.444 1.131c.069.142.21.078.918.014s2.7-.322 3.115.22-.635 3.145-.827 3.565.071.527.419.248a5.438 5.438 0 0 0 1.383-2.025c.415-1.029.667-2.463.423-2.783z" class="cls-5" transform="translate(-.704 -8.222)"/>
                    <path id="Path_3059" d="M19.38 12.338a7.517 7.517 0 0 1-.719 4.075A3.116 3.116 0 0 1 16 18.159c-1.476 0-2.335-1.124-2.335-2.784 0-3.275 2.935-3.87 5.713-3.87zm3.875 9.362a.8.8 0 0 1-.908.092 9.459 9.459 0 0 1-2.205-2.562c-2.108 2.151-3.6 2.794-6.335 2.794-3.232 0-5.751-1.994-5.751-5.989a6.53 6.53 0 0 1 4.1-6.281c2.086-.919 5-1.081 7.227-1.335v-.5a4.945 4.945 0 0 0-.465-2.784 2.571 2.571 0 0 0-2.157-1 2.929 2.929 0 0 0-3.092 2.308.8.8 0 0 1-.665.7l-3.729-.4a.681.681 0 0 1-.575-.794c.859-4.518 4.94-5.88 8.594-5.88a8.713 8.713 0 0 1 5.789 1.913c1.87 1.746 1.692 4.075 1.692 6.61v5.989a5.256 5.256 0 0 0 1.449 3.562.722.722 0 0 1-.011 1.021c-.784.654-2.178 1.87-2.946 2.551l-.011-.011" class="cls-6" transform="translate(-2.717 -.069)"/>
                    <path id="Path_3060" d="M25.429 32.135C13.439 37.841 6 33.067 1.235 30.167c-.295-.183-.8.043-.361.542 1.587 1.924 6.787 6.562 13.575 6.562a15.8 15.8 0 0 0 11.339-4.353c.5-.641.147-.995-.36-.783zm3.367-1.86c-.322-.419-1.958-.5-2.987-.371s-2.579.753-2.444 1.131c.069.142.21.078.918.014s2.7-.322 3.115.22-.635 3.145-.827 3.565.071.527.419.248a5.438 5.438 0 0 0 1.383-2.025c.415-1.029.667-2.463.423-2.783z" class="cls-5" transform="translate(-.704 -8.222)"/>
                    <path id="Path_3061" d="M19.38 12.338a7.517 7.517 0 0 1-.719 4.075A3.116 3.116 0 0 1 16 18.159c-1.476 0-2.335-1.124-2.335-2.784 0-3.275 2.935-3.87 5.713-3.87zm3.875 9.362a.8.8 0 0 1-.908.092 9.459 9.459 0 0 1-2.205-2.562c-2.108 2.151-3.6 2.794-6.335 2.794-3.232 0-5.751-1.994-5.751-5.989a6.53 6.53 0 0 1 4.1-6.281c2.086-.919 5-1.081 7.227-1.335v-.5a4.945 4.945 0 0 0-.465-2.784 2.571 2.571 0 0 0-2.157-1 2.929 2.929 0 0 0-3.092 2.308.8.8 0 0 1-.665.7l-3.729-.4a.681.681 0 0 1-.575-.794c.859-4.518 4.94-5.88 8.594-5.88a8.713 8.713 0 0 1 5.789 1.913c1.87 1.746 1.692 4.075 1.692 6.61v5.989a5.256 5.256 0 0 0 1.449 3.562.722.722 0 0 1-.011 1.021c-.784.654-2.178 1.87-2.946 2.551l-.011-.011" class="cls-6" transform="translate(-2.717 -.069)"/>
                </g>
            </g>
        </g>
        <g id="DOLLY" transform="translate(1.627 6.795)">
            <circle id="Ellipse_70" cx="25.955" cy="25.955" r="25.955" class="cls-1" transform="translate(-.226 -.226)"/>
            <path id="Path_2865" d="M87.87 77.3a1.449 1.449 0 0 0 .147-1.342c-.337-.521-.988-.828-1.45-1.283a3.047 3.047 0 0 1-.435-.847c.333-.11.809-.417.976-.3a2.719 2.719 0 0 0 3.558.011c.169-.125.647.169.981.269a4.089 4.089 0 0 1-.525.887c-.294.3-.723.463-1.021.758-.5.5-.734 1.416.02 1.809a2.7 2.7 0 0 0 2.351-.118 24.04 24.04 0 0 0 .672-2.966c.7-4.009 2.024-5.54 2.993-7.653a4.992 4.992 0 0 1-3 .119c-.727-.235.517-1.626 1.592-1.983a5.135 5.135 0 0 1 2.127-.176c.1-.375.18-.772.247-1.212.253-1.656-.1-3.506-2-3.824-.892-.151-1.59.489-2.263.967a7.033 7.033 0 0 1-6.866.551c-1.029-.428-2.141-1.716-3.314-1.518-1.891.319-2.248 2.169-1.995 3.824.067.435.151.828.244 1.2a4.941 4.941 0 0 1 1.949.189c1.076.357 2.319 1.748 1.593 1.983a5.318 5.318 0 0 1-2.773-.023c.965 2.064 2.262 3.609 2.948 7.557a22.072 22.072 0 0 0 .764 3.221 4.21 4.21 0 0 0 2.48-.1z" class="cls-7" transform="translate(-64.09 -47.316)"/>
            <path id="Path_2866" d="M111.922 148.085c-1.069-.068-2.187-.7-3.091-.694a13.422 13.422 0 0 0-3.063.745 2.691 2.691 0 0 0 2.438 1.533c0-.006.009-.011.012-.017h1.407a2.624 2.624 0 0 0 2.297-1.567z" class="cls-7" transform="translate(-84.032 -117.013)"/>
            <path id="Path_2867" fill="#003865" d="M85.385 45.588c-6.994.747-7.211 4.056-8 2.053a39.19 39.19 0 0 0-4.715-7.855.813.813 0 0 1 .21-1.288 6.875 6.875 0 0 0 3.02-6.278c-1.438-.858-4.008 0-5.676.739.037-2.044-3.28-2.381-3.28-2.381-3.4-3.639-6.541-2.392-6.541-2.392-.052-.016-.107-.029-.164-.04a7.307 7.307 0 0 0-5.796.854 1.537 1.537 0 0 0-.254.18l-.032.025c-5.106.2-6.072 3.943-6.072 3.943A9.305 9.305 0 0 0 42.5 32.6c-.955 4.777 4.875 7.148 4.875 7.148-2.105 7.938.386 7.949-.532 12.557a34.118 34.118 0 0 0-.249 9.656 51.138 51.138 0 0 0-.979 8A25.958 25.958 0 0 0 85.5 48.063c0-.835-.038-1.663-.115-2.475zM43.7 33.381a14.6 14.6 0 0 1 3.716 3.219c1.214 1.712-3.116 2.176-3.716-3.219zM66.836 38.3c-.067.44-.152.837-.247 1.212a5.134 5.134 0 0 0-2.127.176c-1.076.356-2.319 1.748-1.592 1.983a4.991 4.991 0 0 0 3-.119c-.969 2.113-2.3 3.645-2.993 7.653a24.043 24.043 0 0 1-.672 2.966 2.7 2.7 0 0 1-2.351.118c-.754-.393-.524-1.309-.02-1.809.3-.3.727-.46 1.021-.758a4.089 4.089 0 0 0 .525-.887c-.335-.1-.812-.394-.981-.269a2.719 2.719 0 0 1-3.558-.011c-.167-.12-.643.187-.976.3a3.048 3.048 0 0 0 .435.847c.462.455 1.113.762 1.45 1.283a1.449 1.449 0 0 1-.15 1.335 4.21 4.21 0 0 1-2.48.093 22.073 22.073 0 0 1-.755-3.213c-.686-3.948-1.984-5.492-2.948-7.557a5.318 5.318 0 0 0 2.773.023c.727-.235-.517-1.626-1.593-1.983a4.941 4.941 0 0 0-1.949-.189c-.093-.371-.178-.764-.244-1.2-.253-1.656.1-3.506 1.995-3.824 1.174-.2 2.285 1.091 3.314 1.518a7.033 7.033 0 0 0 6.866-.551c.673-.478 1.371-1.118 2.263-.967 1.89.32 2.247 2.17 1.994 3.83zm4.245-2.1a14.592 14.592 0 0 1 3.719-3.221c-.6 5.394-4.934 4.93-3.719 3.215z" transform="translate(-33.819 -22.333)"/>
            <path id="Path_2868" d="M109.626 149.648h-1.407c0 .006-.008.011-.012.017a2.691 2.691 0 0 1-2.438-1.533 13.422 13.422 0 0 1 3.063-.745c.9-.01 2.022.626 3.091.694a2.624 2.624 0 0 1-2.297 1.567z" class="cls-7" transform="translate(-84.032 -117.013)"/>
        </g>
    </g>
</svg>
