<svg xmlns="http://www.w3.org/2000/svg" width="90" height="55" viewBox="0 0 90 55">
    <defs>
        <clipPath id="clip-path">
            <circle id="Ellipse_78" cx="26.5" cy="26.5" r="26.5" fill="#5d95c7"/>
        </clipPath>
        <style>
            .cls-5{fill:#f90}.cls-6{fill-rule:evenodd}
        </style>
    </defs>
    <g id="dop-amza" transform="translate(.599 -4.569)">
        <path id="bg" fill="none" d="M0 0H90V55H0z" transform="translate(-.599 4.569)"/>
        <g id="AMZA" transform="translate(-413.043 -604.917) translate(448 610.486)">
            <circle id="bg-2" cx="26.5" cy="26.5" r="26.5" fill="#f3f4f6"/>
            <g id="icon" clip-path="url(#clip-path)">
                <g id="amazon-icon-1" transform="translate(12.406 11.976)">
                    <path id="Path_3058" d="M25.429 32.135C13.439 37.841 6 33.067 1.235 30.167c-.295-.183-.8.043-.361.542 1.587 1.924 6.787 6.562 13.575 6.562a15.8 15.8 0 0 0 11.339-4.353c.5-.641.147-.995-.36-.783zm3.367-1.86c-.322-.419-1.958-.5-2.987-.371s-2.579.753-2.444 1.131c.069.142.21.078.918.014s2.7-.322 3.115.22-.635 3.145-.827 3.565.071.527.419.248a5.438 5.438 0 0 0 1.383-2.025c.415-1.029.667-2.463.423-2.783z" class="cls-5" transform="translate(-.704 -8.222)"/>
                    <path id="Path_3059" d="M19.38 12.338a7.517 7.517 0 0 1-.719 4.075A3.116 3.116 0 0 1 16 18.159c-1.476 0-2.335-1.124-2.335-2.784 0-3.275 2.935-3.87 5.713-3.87zm3.875 9.362a.8.8 0 0 1-.908.092 9.459 9.459 0 0 1-2.205-2.562c-2.108 2.151-3.6 2.794-6.335 2.794-3.232 0-5.751-1.994-5.751-5.989a6.53 6.53 0 0 1 4.1-6.281c2.086-.919 5-1.081 7.227-1.335v-.5a4.945 4.945 0 0 0-.465-2.784 2.571 2.571 0 0 0-2.157-1 2.929 2.929 0 0 0-3.092 2.308.8.8 0 0 1-.665.7l-3.729-.4a.681.681 0 0 1-.575-.794c.859-4.518 4.94-5.88 8.594-5.88a8.713 8.713 0 0 1 5.789 1.913c1.87 1.746 1.692 4.075 1.692 6.61v5.989a5.256 5.256 0 0 0 1.449 3.562.722.722 0 0 1-.011 1.021c-.784.654-2.178 1.87-2.946 2.551l-.011-.011" class="cls-6" transform="translate(-2.717 -.069)"/>
                    <path id="Path_3060" d="M25.429 32.135C13.439 37.841 6 33.067 1.235 30.167c-.295-.183-.8.043-.361.542 1.587 1.924 6.787 6.562 13.575 6.562a15.8 15.8 0 0 0 11.339-4.353c.5-.641.147-.995-.36-.783zm3.367-1.86c-.322-.419-1.958-.5-2.987-.371s-2.579.753-2.444 1.131c.069.142.21.078.918.014s2.7-.322 3.115.22-.635 3.145-.827 3.565.071.527.419.248a5.438 5.438 0 0 0 1.383-2.025c.415-1.029.667-2.463.423-2.783z" class="cls-5" transform="translate(-.704 -8.222)"/>
                    <path id="Path_3061" d="M19.38 12.338a7.517 7.517 0 0 1-.719 4.075A3.116 3.116 0 0 1 16 18.159c-1.476 0-2.335-1.124-2.335-2.784 0-3.275 2.935-3.87 5.713-3.87zm3.875 9.362a.8.8 0 0 1-.908.092 9.459 9.459 0 0 1-2.205-2.562c-2.108 2.151-3.6 2.794-6.335 2.794-3.232 0-5.751-1.994-5.751-5.989a6.53 6.53 0 0 1 4.1-6.281c2.086-.919 5-1.081 7.227-1.335v-.5a4.945 4.945 0 0 0-.465-2.784 2.571 2.571 0 0 0-2.157-1 2.929 2.929 0 0 0-3.092 2.308.8.8 0 0 1-.665.7l-3.729-.4a.681.681 0 0 1-.575-.794c.859-4.518 4.94-5.88 8.594-5.88a8.713 8.713 0 0 1 5.789 1.913c1.87 1.746 1.692 4.075 1.692 6.61v5.989a5.256 5.256 0 0 0 1.449 3.562.722.722 0 0 1-.011 1.021c-.784.654-2.178 1.87-2.946 2.551l-.011-.011" class="cls-6" transform="translate(-2.717 -.069)"/>
                </g>
            </g>
        </g>
        <g id="DOP" transform="translate(.082 -.347)">
            <circle id="Ellipse_20" cx="26" cy="26" r="26" fill="#3ab2e6" transform="translate(1.319 6.916)"/>
            <g id="icon-2" fill="#fff" transform="translate(11.01 18.236)">
                <path id="Path_360" d="M29.485 25.88l-3.963-6.863H8.055a5.356 5.356 0 0 1-4.078-3.088 5.915 5.915 0 0 0 .789 3.088l1.124 1.946 4.273 7.4a5.413 5.413 0 0 0 4.688 2.707h10.791a5.921 5.921 0 0 0 3.328-1.026c.019-.034 1.449-2.544.515-4.164z" transform="translate(-3.976 -1.043)"/>
                <path id="Path_361" d="M25.4 22.273l-5.249-9.091a5.913 5.913 0 0 0-1.928-2.019c-.118-.035-3.21-.925-4.294.952l-4.156 7.2L14.9 28.2l3.965 6.863c.935 1.621-.494 4.129-.514 4.165a5.917 5.917 0 0 0 1.8-1.936l.786-1.362L25.4 28.2a5.921 5.921 0 0 0 0-5.922z" opacity="0.6" transform="translate(6.645 -10.221)"/>
                <path id="Path_362" d="M25.641 10.675h-10.5a5.921 5.921 0 0 0-5.128 2.961l-5.247 9.091a5.913 5.913 0 0 0-.789 2.836C4.24 27.738 7.3 28.651 7.3 28.651h7.966l5.128-8.883 4.155-7.2c1.084-1.877 4.176-.986 4.294-.951a5.916 5.916 0 0 0-3.202-.942z" opacity="0.8" transform="translate(-3.975 -10.675)"/>
            </g>
        </g>
    </g>
</svg>
