<svg xmlns="http://www.w3.org/2000/svg" width="90" height="55" viewBox="0 0 90 55">
    <defs>
        <clipPath id="jjk48cnjta">
            <circle cx="26" cy="26" r="26" fill="#5d95c7"/>
        </clipPath>
    </defs>
    <g>
        <path fill="none" d="M0 0H90V55H0z" transform="translate(.599 -4.569) translate(-.599 4.569)"/>
        <g transform="translate(.599 -4.569) translate(-412.599 -443.431) translate(448 450)">
            <circle cx="26" cy="26" r="26" fill="#f3f4f6"/>
            <g clip-path="url(#jjk48cnjta)">
                <path d="M19.543 26.734c-1.509 1.464-3.173 1.236-4.76.546a6.031 6.031 0 0 0-5.01 0c-2.219.958-3.4.679-4.732-.546C-2.5 18.968-1.39 7.138 7.184 6.693c2.079.111 3.535 1.15 4.76 1.236 1.82-.37 3.563-1.431 5.511-1.292a6.713 6.713 0 0 1 5.261 2.775 6.119 6.119 0 0 0 .749 11.023 15.647 15.647 0 0 1-3.925 6.319zM11.777 6.609A6.337 6.337 0 0 1 17.566.04c.443 3.981-3.618 6.96-5.789 6.569z" transform="translate(14.294 11.66)"/>
            </g>
        </g>
        <g transform="translate(.599 -4.569) translate(.082 -.347)">
            <circle cx="26" cy="26" r="26" fill="#3ab2e6" transform="translate(1.319 6.916)"/>
            <g fill="#fff">
                <path d="M29.485 25.88l-3.963-6.863H8.055a5.356 5.356 0 0 1-4.078-3.088 5.915 5.915 0 0 0 .789 3.088l1.124 1.946 4.273 7.4a5.413 5.413 0 0 0 4.688 2.707h10.791a5.921 5.921 0 0 0 3.328-1.026c.019-.034 1.449-2.544.515-4.164z" transform="translate(11.01 18.236) translate(-3.976 -1.043)"/>
                <path d="M25.4 22.273l-5.249-9.091a5.913 5.913 0 0 0-1.928-2.019c-.118-.035-3.21-.925-4.294.952l-4.156 7.2L14.9 28.2l3.965 6.863c.935 1.621-.494 4.129-.514 4.165a5.917 5.917 0 0 0 1.8-1.936l.786-1.362L25.4 28.2a5.921 5.921 0 0 0 0-5.922z" opacity="0.6" transform="translate(11.01 18.236) translate(6.645 -10.221)"/>
                <path d="M25.641 10.675h-10.5a5.921 5.921 0 0 0-5.128 2.961l-5.247 9.091a5.913 5.913 0 0 0-.789 2.836C4.24 27.738 7.3 28.651 7.3 28.651h7.966l5.128-8.883 4.155-7.2c1.084-1.877 4.176-.986 4.294-.951a5.916 5.916 0 0 0-3.202-.942z" opacity="0.8" transform="translate(11.01 18.236) translate(-3.975 -10.675)"/>
            </g>
        </g>
    </g>
</svg>
