<svg xmlns="http://www.w3.org/2000/svg" width="90" height="55" viewBox="0 0 90 55">
    <defs>
        <clipPath id="clip-path">
            <circle id="Ellipse_75" cx="26" cy="26" r="26" fill="#5d95c7"/>
        </clipPath>
        <style>
            .cls-5{fill:#e82127}
        </style>
    </defs>
    <g id="dop-tsla" transform="translate(.599 -4.569)">
        <path id="bg" fill="none" d="M0 0H90V55H0z" transform="translate(-.599 4.569)"/>
        <g id="TSLA" transform="translate(-412.599 -363.431) translate(448 370)">
            <circle id="bg-2" cx="26" cy="26" r="26" fill="#f3f4f6"/>
            <g id="logo" clip-path="url(#clip-path)">
                <g id="T" transform="translate(13.283 13.276)">
                    <path id="path35" d="M21.183 37.974l3.716-20.9c3.542 0 4.66.388 4.821 1.974a8.355 8.355 0 0 0 3.58-2.687 26.262 26.262 0 0 0-9.381-2.261l-2.742 3.34h.006l-2.742-3.34a26.259 26.259 0 0 0-9.376 2.265 8.349 8.349 0 0 0 3.575 2.686c.162-1.586 1.278-1.974 4.8-1.977l3.746 20.9" class="cls-5" transform="translate(-7.899 -11.522)"/>
                    <path id="path37" d="M20.592 11.83a30.62 30.62 0 0 1 12.538 2.516 10.181 10.181 0 0 0 .744-1.537 36.361 36.361 0 0 0-13.283-2.588A36.357 36.357 0 0 0 7.31 12.809a12.851 12.851 0 0 0 .744 1.537 30.617 30.617 0 0 1 12.538-2.516" class="cls-5" transform="translate(-7.31 -10.221)"/>
                </g>
            </g>
        </g>
        <g id="DOP" transform="translate(.082 -.347)">
            <circle id="Ellipse_20" cx="26" cy="26" r="26" fill="#3ab2e6" transform="translate(1.319 6.916)"/>
            <g id="icon" fill="#fff" transform="translate(11.01 18.236)">
                <path id="Path_360" d="M29.485 25.88l-3.963-6.863H8.055a5.356 5.356 0 0 1-4.078-3.088 5.915 5.915 0 0 0 .789 3.088l1.124 1.946 4.273 7.4a5.413 5.413 0 0 0 4.688 2.707h10.791a5.921 5.921 0 0 0 3.328-1.026c.019-.034 1.449-2.544.515-4.164z" transform="translate(-3.976 -1.043)"/>
                <path id="Path_361" d="M25.4 22.273l-5.249-9.091a5.913 5.913 0 0 0-1.928-2.019c-.118-.035-3.21-.925-4.294.952l-4.156 7.2L14.9 28.2l3.965 6.863c.935 1.621-.494 4.129-.514 4.165a5.917 5.917 0 0 0 1.8-1.936l.786-1.362L25.4 28.2a5.921 5.921 0 0 0 0-5.922z" opacity="0.6" transform="translate(6.645 -10.221)"/>
                <path id="Path_362" d="M25.641 10.675h-10.5a5.921 5.921 0 0 0-5.128 2.961l-5.247 9.091a5.913 5.913 0 0 0-.789 2.836C4.24 27.738 7.3 28.651 7.3 28.651h7.966l5.128-8.883 4.155-7.2c1.084-1.877 4.176-.986 4.294-.951a5.916 5.916 0 0 0-3.202-.942z" opacity="0.8" transform="translate(-3.975 -10.675)"/>
            </g>
        </g>
    </g>
</svg>
