<svg xmlns="http://www.w3.org/2000/svg" width="43.916" height="44" viewBox="0 0 43.916 44">
    <defs>
        <style>
            .cls-2{fill:#fff}
        </style>
    </defs>
    <g id="dolly-icon" transform="translate(.35 .37)">
        <circle id="Ellipse_71" cx="21.919" cy="21.919" r="21.919" fill="#5d95c7" transform="translate(-.35 -.37)"/>
        <g id="Group_104" transform="translate(7.553 4.806)">
            <path id="Path_2869" d="M84.441 71.759c-.564-3.244-1.63-4.513-2.423-6.21a4.37 4.37 0 0 0 2.279.019c.6-.193-.425-1.337-1.309-1.63a4.064 4.064 0 0 0-1.6-.155c-.077-.305-.146-.628-.2-.986-.208-1.36.085-2.881 1.64-3.143.965-.163 1.878.9 2.723 1.248a5.779 5.779 0 0 0 5.642-.453c.553-.393 1.126-.918 1.86-.795 1.554.262 1.847 1.782 1.639 3.143-.055.362-.125.688-.2 1a4.221 4.221 0 0 0-1.748.145c-.884.293-1.906 1.436-1.308 1.63a4.1 4.1 0 0 0 2.464-.1c-.8 1.736-1.886 2.995-2.459 6.289a19.753 19.753 0 0 1-.552 2.437 2.222 2.222 0 0 1-1.932.1c-.62-.323-.43-1.076-.017-1.487.245-.243.6-.378.839-.623a3.364 3.364 0 0 0 .431-.729c-.275-.082-.667-.324-.806-.221a2.234 2.234 0 0 1-2.924-.009c-.137-.1-.528.154-.8.244a2.494 2.494 0 0 0 .357.7c.379.374.914.626 1.191 1.054a1.191 1.191 0 0 1-.121 1.1 3.459 3.459 0 0 1-2.038.077 18.138 18.138 0 0 1-.628-2.645z" class="cls-2" transform="translate(-74.609 -54.089)"/>
            <path id="Path_2870" d="M107.706 147.35c0 .005-.007.009-.01.014a2.211 2.211 0 0 1-2-1.259 11.036 11.036 0 0 1 2.517-.612c.743-.008 1.661.514 2.54.57a2.157 2.157 0 0 1-1.887 1.284z" class="cls-2" transform="translate(-94.881 -124.937)"/>
            <path id="Path_2871" fill="#003865" d="M77.16 46.3c-1.428.306-4.537-1.752-5.273-3.623a18.591 18.591 0 0 0-3.173-4.843.668.668 0 0 1 .173-1.058 5.65 5.65 0 0 0 2.481-5.159c-1.041-.621-2.8-.146-4.144.389-.135-1.581-2.748-1.851-2.748-1.851-2.859-3.063-5.505-2.013-5.505-2.013a6.082 6.082 0 0 0-5.184.8c-.029.015-.054.038-.081.056-3.246.128-4.5 1.961-4.917 2.845a1.743 1.743 0 0 0-.277.533 7.647 7.647 0 0 0-4.586-.451c-.785 3.925 4.006 5.874 4.006 5.874-1.73 6.523.55 6.735-.2 10.522-.434 2.177.583 4.471.659 6.03.128 2.631-.536 7.022-.411 9.925a21.857 21.857 0 0 0 31.871-18.36 19.562 19.562 0 0 0-2.691.384zM44.578 32.575a13 13 0 0 1 3.458 2.682c1.164 1.467-2.667 2.087-3.458-2.682zM57.82 50.312h-1.156c0 .005-.007.009-.01.014a2.211 2.211 0 0 1-2-1.259 11.037 11.037 0 0 1 2.517-.612c.743-.008 1.661.514 2.54.57a2.157 2.157 0 0 1-1.891 1.287zm6.1-13.7c-.055.362-.125.688-.2 1a4.221 4.221 0 0 0-1.748.145c-.884.293-1.906 1.436-1.308 1.63a4.1 4.1 0 0 0 2.464-.1c-.8 1.736-1.886 2.995-2.459 6.289a19.75 19.75 0 0 1-.552 2.437 2.222 2.222 0 0 1-1.932.1c-.62-.323-.43-1.076-.017-1.487.245-.243.6-.378.839-.623a3.364 3.364 0 0 0 .431-.729c-.275-.082-.667-.324-.806-.221a2.234 2.234 0 0 1-2.924-.009c-.137-.1-.528.154-.8.244a2.494 2.494 0 0 0 .357.7c.379.374.914.626 1.191 1.054a1.191 1.191 0 0 1-.121 1.1 3.459 3.459 0 0 1-2.038.077 18.141 18.141 0 0 1-.62-2.64c-.564-3.244-1.63-4.513-2.423-6.21a4.37 4.37 0 0 0 2.279.019c.6-.193-.425-1.337-1.309-1.63a4.064 4.064 0 0 0-1.6-.155c-.077-.305-.146-.628-.2-.986-.208-1.361.085-2.881 1.639-3.143.965-.163 1.878.9 2.723 1.248a5.779 5.779 0 0 0 5.642-.453c.553-.393 1.126-.918 1.86-.795 1.546.256 1.84 1.776 1.632 3.137zm3.507-1.64a13 13 0 0 1 3.309-2.864c-.536 4.803-4.391 4.392-3.309 2.862z" transform="translate(-43.839 -27.902)"/>
        </g>
    </g>
</svg>
