<svg id="a3285e36-1174-45c2-a6f6-7544cf1d2799" xmlns="http://www.w3.org/2000/svg" xmlns:xlink="http://www.w3.org/1999/xlink" width="32" height="32" viewBox="0 0 32 32"><defs><style>.cls-1{fill:url(#linear-gradient);}.cls-2{fill:url(#linear-gradient-2);}.cls-3{fill:url(#linear-gradient-3);}</style><linearGradient id="linear-gradient" x1="24.3803" y1="22.6049" x2="5.2853" y2="22.6049" gradientUnits="userSpaceOnUse"><stop offset="0" stop-color="#a0d8f1"/><stop offset="1" stop-color="#d2f4ff"/></linearGradient><linearGradient id="linear-gradient-2" x1="27.6121" y1="20.8399" x2="18.952" y2="6.7009" gradientUnits="userSpaceOnUse"><stop offset="0.0013" stop-color="#808285"/><stop offset="1" stop-color="#414042"/></linearGradient><linearGradient id="linear-gradient-3" x1="4.0054" y1="17.1476" x2="17.1514" y2="1.3237" gradientUnits="userSpaceOnUse"><stop offset="0.0013" stop-color="#3ab2e6"/><stop offset="1" stop-color="#a4e9ff"/></linearGradient></defs><path class="cls-1" d="M24.6174,24.8336h0l-3.71-6.4253H4.5557a4.0081,4.0081,0,0,1-3.8175-2.89,5.5394,5.5394,0,0,0,.7389,2.89L2.5289,20.23l4,6.9276a5.068,5.068,0,0,0,4.3891,2.5341H21.0206a5.54,5.54,0,0,0,3.1153-.96C24.1546,28.6993,25.4934,26.351,24.6174,24.8336Z"/><path class="cls-2" d="M30.7359,12.8643,25.8218,4.3529a5.5367,5.5367,0,0,0-1.8052-1.89c-.11-.0324-3.0051-.8661-4.02.8908h0l-3.8906,6.7387,4.8012,8.316,3.71,6.4253h0c.876,1.5174-.4628,3.8657-.4815,3.8984A5.538,5.538,0,0,0,25.8218,26.92l.736-1.2748,4.1781-7.2366A5.5442,5.5442,0,0,0,30.7359,12.8643Z"/><path class="cls-3" d="M21.0206,1.5809H11.1924a5.544,5.544,0,0,0-4.8012,2.772L1.4771,12.8643A5.5383,5.5383,0,0,0,.7382,15.518c.2467,2.0367,3.11,2.89,3.11,2.89h7.4572l4.8012-8.316,3.8906-6.7387c1.0144-1.7569,3.91-.9232,4.02-.8908A5.539,5.539,0,0,0,21.0206,1.5809Z"/></svg>
